<?xml version="1.0" encoding="UTF-8">
<svg xmlns="http://www.w3.org/2000/svg" xmlns:xlink="http://www.w3.org/1999/xlink" version="1.1" width="100" height="100" viewBox="0 0 100 100" xml:space="preserve">

<g transform="matrix(0 -0.02 0.02 0 50.51 49.55)"  >
<path style=" fill: rgb(255,255,255); fill-rule: nonzero; opacity: 1;" vector-effect="non-scaling-stroke"  transform=" translate(-2256.72, -1908.52)" d="M 2063 3613 l -112 -44 l -99 -107 c -87 -95 -114 -134 -233 -337 c -73 -126 -420 -688 -771 -1248 c -748 -1197 -690 -1077 -643 -1306 c 15 -75 33 -148 40 -162 c 7 -15 41 -61 76 -103 l 63 -76 l 109 -36 l 109 -36 l 1717 7 l 1716 7 l 76 38 c 101 51 140 108 188 272 l 34 117 l -33 133 c -28 113 -46 160 -121 309 c -72 144 -145 263 -411 665 c -178 269 -491 734 -694 1034 c -204 300 -399 590 -434 645 c -85 134 -162 222 -203 231 c -18 3 -36 10 -42 14 c -20 15 -105 30 -162 29 c -44 -1 -86 -12 -170 -46 z" stroke-linecap="round" />
</g>
</svg>