<svg xmlns="http://www.w3.org/2000/svg" width="100px" height="100px" version="1.1" viewBox="0 0 4780 3950" xmlns:xlink="http://www.w3.org/1999/xlink">
  <g fill="white" transform="rotate(-90) translate(-4250,500)">
    <path
      stroke="black"
      d="M2063 3613 l-112 -44 -99 -107 c-87 -95 -114 -134 -233 -337 -73 -126 -420 -688 -771 -1248 -748 -1197 -690 -1077 -643 -1306 15 -75 33 -148 40 -162 7 -15 41 -61 76 -103 l63 -76 109 -36 109 -36 1717 7 1716 7 76 38 c101 51 140 108 188 272 l34 117 -33 133 c-28 113 -46 160 -121 309 -72 144 -145 263 -411 665 -178 269 -491 734 -694 1034 -204 300 -399 590 -434 645 -85 134 -162 222 -203 231 -18 3 -36 10 -42 14 -20 15 -105 30 -162 29 -44 -1 -86 -12 -170 -46z"
    
    />
  </g>
</svg>