<?xml version="1.0" encoding="UTF-8" standalone="no"?>
<!DOCTYPE svg PUBLIC "-//W3C//DTD SVG 1.1//EN" "http://www.w3.org/Graphics/SVG/1.1/DTD/svg11.dtd">
<svg xmlns="http://www.w3.org/2000/svg" version="1.1" viewBox="0.00 0.00 1000.00 778.00" width="100%" height="100%">



<path fill="#7e7e7e" style="stroke-width: 16px; stroke: #7e7e7e;" d="
  M 694.46 279.11
  Q 698.84 284.98 701.16 290.33
  Q 717.83 328.71 774.71 460.50
  Q 783.39 480.61 785.86 506.26
  Q 787.35 523.48 785.11 540.42
  Q 778.30 589.88 745.44 626.95
  Q 722.32 652.34 694.00 664.73
  Q 671.68 674.49 665.00 677.20
  Q 626.09 692.99 582.49 686.52
  C 578.15 685.88 573.30 684.59 568.71 683.64
  C 552.74 680.30 536.43 672.75 522.67 664.20
  Q 510.14 656.42 507.46 654.90
  Q 439.87 616.67 371.84 579.23
  Q 368.59 577.43 366.76 576.81
  Q 358.97 574.13 339.29 567.74
  C 331.59 565.37 323.75 563.32 316.52 559.67
  Q 310.33 556.25 304.75 551.22
  Q 288.80 535.74 287.28 512.74
  C 287.13 480.56 311.82 454.40 344.25 455.36
  Q 350.56 455.55 361.99 458.55
  Q 379.11 463.03 396.20 467.62
  L 408.22 472.14
  Q 409.40 472.58 408.91 471.42
  Q 406.29 465.17 403.36 458.41
  Q 355.10 347.13 307.08 235.74
  Q 300.89 221.39 302.56 206.02
  Q 306.79 179.70 328.97 166.94
  C 352.27 153.54 382.31 160.11 398.24 181.77
  Q 401.96 186.81 407.43 199.47
  Q 431.33 254.74 455.14 309.87
  Q 455.43 310.52 455.82 309.93
  C 472.89 284.11 507.02 279.82 530.55 299.67
  Q 530.97 300.03 531.22 299.54
  C 545.19 272.01 578.31 263.55 603.96 280.55
  Q 606.43 282.19 611.28 286.67
  Q 611.70 287.05 611.98 286.55
  C 629.39 255.17 671.92 251.53 694.46 279.11
  Z
  M 533.97 645.75
  C 570.49 668.73 616.53 673.98 657.56 657.03
  Q 669.54 652.09 681.43 646.97
  C 752.00 616.59 784.08 535.34 753.48 464.87
  Q 717.76 382.60 682.39 300.17
  Q 678.34 290.75 670.47 286.04
  C 650.38 274.04 625.31 289.66 627.77 313.18
  Q 628.26 317.85 632.86 328.49
  Q 648.30 364.20 663.72 399.91
  Q 665.54 404.12 665.60 406.27
  C 665.76 411.60 661.47 416.57 656.19 417.08
  C 652.07 417.47 646.98 415.06 645.31 411.20
  Q 623.62 361.11 602.03 310.99
  C 595.45 295.72 578.64 288.93 563.70 295.88
  C 550.26 302.12 543.91 318.99 549.83 332.68
  Q 564.91 367.60 579.98 402.51
  C 585.88 416.17 566.35 424.50 560.36 410.71
  Q 541.86 368.13 523.34 325.57
  C 517.82 312.89 503.74 305.93 490.73 309.39
  C 474.48 313.72 464.67 331.92 471.59 347.91
  Q 484.61 378.02 497.62 408.15
  Q 499.48 412.47 499.61 414.61
  C 500.18 424.50 488.35 429.54 481.41 422.58
  Q 479.92 421.09 477.90 416.42
  Q 432.70 311.85 387.50 207.28
  Q 382.82 196.44 379.57 192.59
  C 372.72 184.46 362.14 180.47 351.59 181.60
  C 333.10 183.56 320.85 201.53 324.18 219.60
  Q 324.81 223.02 325.54 224.71
  Q 379.16 348.72 432.75 472.74
  Q 437.37 483.43 431.42 491.16
  C 422.43 502.85 410.58 496.11 398.87 491.43
  Q 391.55 488.50 384.26 486.58
  Q 367.62 482.21 350.96 477.91
  Q 340.40 475.19 331.24 478.72
  C 299.95 490.79 301.96 533.71 333.74 543.73
  Q 353.89 550.09 374.05 556.50
  Q 378.75 558.00 383.06 560.42
  Q 454.46 600.53 525.75 640.84
  Q 529.92 643.20 533.97 645.75
  Z"
/>

</svg>
